<svg xmlns="http://www.w3.org/2000/svg" viewBox="0 0 162 80" role="img" aria-label="Transitions Pro"><path d="M87.683 66.042h-1.708v4.75h1.708a1.7 1.7 0 0 0 1.709-1.692v-1.35a1.7 1.7 0 0 0-1.692-1.708h-.018m-2.848-2.278h2.848a3.981 3.981 0 0 1 3.986 3.974v1.342a3.98 3.98 0 0 1-3.968 3.987h-1.725v5.507a1.14 1.14 0 1 1-2.279 0V64.9a1.124 1.124 0 0 1 1.109-1.139h.03M97.179 70.792a1.7 1.7 0 0 0 1.708-1.692v-1.349a1.7 1.7 0 0 0-1.687-1.709h-1.731v4.75Zm1.851 1.827 2.065 5.554a1.1 1.1 0 0 1-.586 1.442c-.025.011-.052.02-.078.029a1.157 1.157 0 0 1-1.472-.664l-2.207-5.91h-1.283v5.507a1.14 1.14 0 1 1-2.279 0V64.9a1.125 1.125 0 0 1 1.11-1.136h2.878a3.981 3.981 0 0 1 3.986 3.974v1.342a3.916 3.916 0 0 1-2.136 3.536M105.057 67.655v8.07a1.709 1.709 0 0 0 3.418 0v-8.07a1.709 1.709 0 0 0-3.418 0m-2.278 8.07v-8.07a3.987 3.987 0 0 1 7.974 0v8.07a3.987 3.987 0 0 1-7.974 0M85.7.283h22.844a1.866 1.866 0 0 1 1.889 1.841v3.982a1.888 1.888 0 0 1-3.776 0V4.06H87.591v2.046a1.889 1.889 0 1 1-3.778 0V2.172A1.866 1.866 0 0 1 85.655.283h.045M108.546 55.869H85.7a1.863 1.863 0 0 1-1.889-1.838v-3.985a1.889 1.889 0 0 1 3.777 0v2.046h19.067v-2.046a1.889 1.889 0 0 1 3.777 0v3.934a1.865 1.865 0 0 1-1.841 1.889h-.048M104.113 17.225a1.864 1.864 0 0 1-1.839 1.889H99v20.772a1.889 1.889 0 1 1-3.778 0V19.113H92a1.889 1.889 0 0 1 0-3.777h10.229a1.866 1.866 0 0 1 1.889 1.841v.048" fill="#008e91"/><path d="M14.017 17.225a1.864 1.864 0 0 1-1.839 1.889H8.9v20.772a1.889 1.889 0 1 1-3.778 0V19.113H1.9a1.889 1.889 0 0 1 0-3.777h10.229a1.866 1.866 0 0 1 1.889 1.841v.048M23.146 26.981a2.821 2.821 0 0 0 2.832-2.81v-2.223a2.823 2.823 0 0 0-2.81-2.834h-2.856v7.869Zm3.068 3.03 3.423 9.206a1.831 1.831 0 0 1-.984 2.4 1.624 1.624 0 0 1-.116.044 1.923 1.923 0 0 1-2.439-1.1l-3.659-9.8h-2.127v9.13a1.888 1.888 0 1 1-3.776 0V17.225a1.864 1.864 0 0 1 1.838-1.889h4.772a6.6 6.6 0 0 1 6.609 6.591v2.219a6.49 6.49 0 0 1-3.541 5.86M39.355 24.188c-.748 2.558-1.534 5.587-2.282 8.3h4.565c-.748-2.715-1.535-5.744-2.283-8.3M46.162 41.7a1.868 1.868 0 0 1-2.314-1.274l-.007-.026c-.118-.315-.2-.708-.315-1.141-.2-.747-.511-1.771-.826-2.99h-6.689c-.354 1.22-.63 2.243-.826 2.99-.119.433-.2.826-.315 1.141a1.881 1.881 0 0 1-3.632-.983l.012-.04 6.294-22.818a1.878 1.878 0 0 1 3.62 0l6.3 22.818a1.868 1.868 0 0 1-1.275 2.314l-.025.007M61.112 40.712a287.83 287.83 0 0 0-2.478-5.154c-1.456-2.99-3.344-6.806-4.958-10.229v14.557a1.888 1.888 0 0 1-3.776 0V17.067a1.823 1.823 0 0 1 1.456-1.849 1.9 1.9 0 0 1 2.125 1.023 288.065 288.065 0 0 0 2.478 5.153c1.456 2.99 3.266 6.807 4.958 10.229V17.067a1.888 1.888 0 0 1 3.776 0v22.819a1.9 1.9 0 0 1-1.456 1.849 1.857 1.857 0 0 1-2.125-1.023M77.006 35.2a2.933 2.933 0 0 0-.826-2.361l-6.294-6.452a6.4 6.4 0 0 1-1.849-5.115 6.551 6.551 0 0 1 2.6-4.76 6.767 6.767 0 0 1 5.312-1.22 6.649 6.649 0 0 1 4.4 3.188 1.938 1.938 0 0 1-.707 2.6 1.871 1.871 0 0 1-2.553-.7v-.007A2.95 2.95 0 0 0 75.194 19a2.85 2.85 0 0 0-2.808 4.515 2.593 2.593 0 0 0 .211.245l6.256 6.453a6.8 6.8 0 0 1 1.928 5.271 6.887 6.887 0 0 1-2.675 4.916 6.776 6.776 0 0 1-9.5-1.262 6.581 6.581 0 0 1-.5-.744 1.84 1.84 0 0 1 .568-2.54c.033-.021.067-.041.1-.06a1.939 1.939 0 0 1 2.6.708 2.975 2.975 0 0 0 4.054 1.13 2.923 2.923 0 0 0 .392-.264A2.873 2.873 0 0 0 77 35.204M83.818 39.886V17.068a1.889 1.889 0 0 1 3.777-.087v22.905a1.889 1.889 0 0 1-3.777.087v-.087M106.638 39.886V17.068a1.889 1.889 0 1 1 3.777-.087v22.905a1.889 1.889 0 0 1-3.777.088v-.088M117.807 21.789v13.376a2.833 2.833 0 1 0 5.665 0V21.789a2.833 2.833 0 0 0-5.665 0m-3.772 13.376V21.789a6.609 6.609 0 1 1 13.218 0v13.376a6.609 6.609 0 1 1-13.218 0M142.081 40.712c-.787-1.692-1.613-3.383-2.478-5.154-1.456-2.99-3.344-6.806-4.958-10.229v14.557a1.888 1.888 0 0 1-3.776 0V17.067a1.823 1.823 0 0 1 1.456-1.849 1.9 1.9 0 0 1 2.125 1.023 295.096 295.096 0 0 0 2.478 5.153c1.456 2.99 3.266 6.807 4.958 10.229V17.067a1.888 1.888 0 0 1 3.776 0v22.819a1.9 1.9 0 0 1-1.456 1.849 1.857 1.857 0 0 1-2.125-1.023M158.133 35.32a2.956 2.956 0 0 0-.831-2.374l-6.331-6.49a6.435 6.435 0 0 1-1.859-5.144 6.589 6.589 0 0 1 2.611-4.788 6.807 6.807 0 0 1 5.342-1.226A6.691 6.691 0 0 1 161.5 18.5a1.948 1.948 0 0 1-.712 2.612 1.883 1.883 0 0 1-2.569-.706V20.4a2.968 2.968 0 0 0-1.9-1.386 2.868 2.868 0 0 0-2.83 4.541 2.662 2.662 0 0 0 .214.248l6.291 6.49a6.844 6.844 0 0 1 1.939 5.3 6.928 6.928 0 0 1-2.69 4.946 6.809 6.809 0 0 1-10.045-2.017 1.849 1.849 0 0 1 .575-2.553c.032-.021.065-.04.1-.059a1.949 1.949 0 0 1 2.611.713 2.991 2.991 0 0 0 4.471.87 2.886 2.886 0 0 0 1.187-2.177" fill="#161615"/><path d="M124.613 60.5a1.691 1.691 0 0 1 1.364.616 2.669 2.669 0 0 1 .023 3.16 1.663 1.663 0 0 1-1.331.594h-1.034a.039.039 0 0 0-.044.044V68.1a.1.1 0 0 1-.11.11h-.836a.1.1 0 0 1-.11-.11v-7.487a.1.1 0 0 1 .11-.11Zm-.165 3.52a.887.887 0 0 0 .726-.341 1.493 1.493 0 0 0 .275-.946 1.513 1.513 0 0 0-.275-.957.866.866 0 0 0-.726-.363h-.814a.039.039 0 0 0-.044.044v2.519a.039.039 0 0 0 .044.044Zm4.754-1.5a1.753 1.753 0 0 1 1.826 1.837V68.1a.1.1 0 0 1-.11.11h-.836a.1.1 0 0 1-.11-.11v-.242a.034.034 0 0 0-.022-.033c-.007-.007-.018 0-.033.011a1.389 1.389 0 0 1-1.133.462 1.839 1.839 0 0 1-1.111-.352 1.517 1.517 0 0 1-.473-1.276 1.652 1.652 0 0 1 .572-1.4 2.411 2.411 0 0 1 1.518-.451h.638a.039.039 0 0 0 .044-.044v-.319a1.144 1.144 0 0 0-.22-.737.687.687 0 0 0-.572-.286.627.627 0 0 0-.462.187.788.788 0 0 0-.22.484.1.1 0 0 1-.11.11h-.888a.1.1 0 0 1-.11-.11 1.625 1.625 0 0 1 .561-1.144 1.847 1.847 0 0 1 1.249-.433Zm-.187 4.851a1.006 1.006 0 0 0 .671-.242.843.843 0 0 0 .286-.682v-.748a.039.039 0 0 0-.044-.044h-.671a1 1 0 0 0-.7.242.857.857 0 0 0-.264.682.807.807 0 0 0 .2.594.714.714 0 0 0 .522.205Zm5.179-4.818a.885.885 0 0 1 .473.121.117.117 0 0 1 .055.143l-.165.836q-.01.1-.132.066a.842.842 0 0 0-.308-.055 1.28 1.28 0 0 0-.2.022.774.774 0 0 0-.572.374 1.493 1.493 0 0 0-.22.825V68.1a.1.1 0 0 1-.11.11h-.836a.1.1 0 0 1-.11-.11v-5.375a.1.1 0 0 1 .11-.11h.836a.1.1 0 0 1 .11.11v.638a.065.065 0 0 0 .011.044q.022 0 .033-.033a1.08 1.08 0 0 1 1.025-.814Zm3.407.715a.1.1 0 0 1-.11.11h-.77a.039.039 0 0 0-.044.044v3.098a.943.943 0 0 0 .154.616.606.606 0 0 0 .484.154h.1a.1.1 0 0 1 .11.11v.7a.1.1 0 0 1-.11.11h-.341a1.751 1.751 0 0 1-1.067-.275 1.268 1.268 0 0 1-.352-1.045v-3.461a.039.039 0 0 0-.044-.044h-.429a.1.1 0 0 1-.11-.11v-.55a.1.1 0 0 1 .11-.11h.429a.039.039 0 0 0 .044-.044v-1.243a.1.1 0 0 1 .11-.11h.8a.1.1 0 0 1 .11.11v1.243a.039.039 0 0 0 .044.044h.77a.1.1 0 0 1 .11.11Zm4.437 2.464a.1.1 0 0 1-.11.11h-2.486a.039.039 0 0 0-.044.044v.594a.957.957 0 0 0 .22.649.723.723 0 0 0 .572.253.744.744 0 0 0 .517-.187.826.826 0 0 0 .264-.484.121.121 0 0 1 .121-.088l.814.044a.085.085 0 0 1 .077.033.075.075 0 0 1 .022.077 1.643 1.643 0 0 1-.55 1.122 1.879 1.879 0 0 1-1.265.4 1.905 1.905 0 0 1-1.353-.473 1.667 1.667 0 0 1-.495-1.265v-2.285a1.69 1.69 0 0 1 .495-1.265 1.876 1.876 0 0 1 1.353-.484 1.851 1.851 0 0 1 1.353.484 1.69 1.69 0 0 1 .5 1.265Zm-1.848-2.3a.723.723 0 0 0-.572.253.957.957 0 0 0-.22.649v.583a.039.039 0 0 0 .044.044h1.507a.039.039 0 0 0 .044-.044v-.583a.952.952 0 0 0-.22-.649.733.733 0 0 0-.583-.245Zm5.071-.9a1.251 1.251 0 0 1 1.056.473 2.047 2.047 0 0 1 .374 1.32V68.1a.1.1 0 0 1-.11.11h-.836a.1.1 0 0 1-.11-.11v-3.681a1.137 1.137 0 0 0-.2-.715.658.658 0 0 0-.55-.253.7.7 0 0 0-.572.253 1.163 1.163 0 0 0-.22.693c0 .044 0 .066-.011.066V68.1a.1.1 0 0 1-.11.11h-.836a.1.1 0 0 1-.11-.11v-5.375a.1.1 0 0 1 .11-.11h.836a.1.1 0 0 1 .11.11v.3a.036.036 0 0 0 .022.033c.015 0 .03-.011.044-.033a1.355 1.355 0 0 1 1.113-.487Zm4.319-.011a1.753 1.753 0 0 1 1.826 1.837V68.1a.1.1 0 0 1-.11.11h-.836a.1.1 0 0 1-.11-.11v-.242a.034.034 0 0 0-.022-.033c-.007-.007-.018 0-.033.011a1.389 1.389 0 0 1-1.133.462 1.839 1.839 0 0 1-1.111-.352 1.517 1.517 0 0 1-.473-1.276 1.652 1.652 0 0 1 .572-1.4 2.411 2.411 0 0 1 1.518-.451h.638a.039.039 0 0 0 .044-.044v-.319a1.144 1.144 0 0 0-.22-.737.687.687 0 0 0-.572-.286.627.627 0 0 0-.462.187.788.788 0 0 0-.22.484.1.1 0 0 1-.11.11h-.891a.1.1 0 0 1-.11-.11 1.625 1.625 0 0 1 .561-1.144 1.847 1.847 0 0 1 1.254-.433Zm-.187 4.851a1.006 1.006 0 0 0 .671-.242.843.843 0 0 0 .286-.682V65.7a.039.039 0 0 0-.044-.044h-.671a1 1 0 0 0-.7.242.857.857 0 0 0-.264.682.807.807 0 0 0 .2.594.714.714 0 0 0 .522.204Zm3.639-5.643a.7.7 0 1 1 0-1.408.678.678 0 0 1 .7.7.678.678 0 0 1-.7.7Zm-.407 6.479a.1.1 0 0 1-.11-.11v-5.373a.1.1 0 0 1 .11-.11h.836a.1.1 0 0 1 .11.11V68.1a.1.1 0 0 1-.11.11Zm4.275-5.648a.887.887 0 0 1 .473.121.118.118 0 0 1 .055.143l-.165.836q-.011.1-.132.066a.842.842 0 0 0-.308-.055 1.28 1.28 0 0 0-.2.022.774.774 0 0 0-.572.374 1.485 1.485 0 0 0-.22.825V68.1a.1.1 0 0 1-.11.11h-.836a.1.1 0 0 1-.11-.11v-5.375a.1.1 0 0 1 .11-.11h.836a.1.1 0 0 1 .11.11v.638a.065.065 0 0 0 .011.044q.022 0 .033-.033a1.08 1.08 0 0 1 1.025-.814Zm4.761 3.179a.1.1 0 0 1-.11.11h-2.486a.039.039 0 0 0-.044.044v.594a.957.957 0 0 0 .22.649.723.723 0 0 0 .572.253.744.744 0 0 0 .517-.187.826.826 0 0 0 .264-.484.121.121 0 0 1 .121-.088l.814.044a.085.085 0 0 1 .077.033.075.075 0 0 1 .022.077 1.643 1.643 0 0 1-.55 1.122 1.879 1.879 0 0 1-1.265.4 1.905 1.905 0 0 1-1.353-.473 1.667 1.667 0 0 1-.5-1.265v-2.292a1.69 1.69 0 0 1 .5-1.265 1.876 1.876 0 0 1 1.353-.484 1.851 1.851 0 0 1 1.353.484 1.69 1.69 0 0 1 .495 1.265Zm-1.848-2.3a.723.723 0 0 0-.572.253.957.957 0 0 0-.22.649v.583a.039.039 0 0 0 .044.044h1.507a.039.039 0 0 0 .044-.044v-.583a.952.952 0 0 0-.22-.649.733.733 0 0 0-.58-.252ZM124.965 72a.1.1 0 0 1 .11-.11h.836a.1.1 0 0 1 .11.11v7.48a.1.1 0 0 1-.11.11h-.836a.1.1 0 0 1-.11-.11v-.18a.034.034 0 0 0-.022-.033c-.007-.007-.018 0-.033.011a1.39 1.39 0 0 1-.473.3 1.587 1.587 0 0 1-1.683-.374 1.87 1.87 0 0 1-.418-1.265v-2.292a1.835 1.835 0 0 1 .418-1.276 1.587 1.587 0 0 1 1.683-.371 1.39 1.39 0 0 1 .473.3c.015.015.026.018.033.011a.034.034 0 0 0 .022-.033Zm-.781 6.765a.721.721 0 0 0 .517-.2.874.874 0 0 0 .264-.539v-2.478a.828.828 0 0 0-.264-.528.7.7 0 0 0-.517-.209.755.755 0 0 0-.583.253.957.957 0 0 0-.22.649v2.145a.957.957 0 0 0 .22.649.755.755 0 0 0 .583.253Zm3.891-6.875c.08 0 .11.04.088.121l-.682 2.123a.128.128 0 0 1-.132.088h-.627a.118.118 0 0 1-.088-.033.09.09 0 0 1 0-.088l.484-2.112a.113.113 0 0 1 .121-.1Zm1.933 2.013a1.753 1.753 0 0 1 1.826 1.837v3.74a.1.1 0 0 1-.11.11h-.836a.1.1 0 0 1-.11-.11v-.242a.034.034 0 0 0-.022-.033c-.007-.007-.018 0-.033.011a1.391 1.391 0 0 1-1.133.462 1.839 1.839 0 0 1-1.111-.352 1.517 1.517 0 0 1-.473-1.276 1.652 1.652 0 0 1 .572-1.4 2.411 2.411 0 0 1 1.522-.45h.638a.039.039 0 0 0 .044-.044v-.319a1.144 1.144 0 0 0-.22-.737.688.688 0 0 0-.572-.286.627.627 0 0 0-.462.187.782.782 0 0 0-.22.484.1.1 0 0 1-.11.11h-.898a.1.1 0 0 1-.11-.11 1.625 1.625 0 0 1 .561-1.144 1.844 1.844 0 0 1 1.257-.441Zm-.187 4.851a1.008 1.008 0 0 0 .671-.242.843.843 0 0 0 .286-.682v-.748a.039.039 0 0 0-.044-.044h-.671a1 1 0 0 0-.7.242.857.857 0 0 0-.264.682.807.807 0 0 0 .2.594.714.714 0 0 0 .522.193Zm4.1.836a.113.113 0 0 1-.121-.1l-1.353-5.379-.011-.044c0-.051.033-.077.1-.077h.935a.105.105 0 0 1 .121.1l.792 3.773c.007.022.015.033.022.033s.015-.011.022-.033l.781-3.773a.113.113 0 0 1 .121-.1l.935.011a.086.086 0 0 1 .077.033.075.075 0 0 1 .011.088l-1.342 5.368a.105.105 0 0 1-.121.1Zm6.739-2.475a.1.1 0 0 1-.11.11h-2.486a.039.039 0 0 0-.044.044v.594a.957.957 0 0 0 .22.649.723.723 0 0 0 .572.253.744.744 0 0 0 .517-.187.826.826 0 0 0 .264-.484.121.121 0 0 1 .121-.088l.814.044a.085.085 0 0 1 .077.033.075.075 0 0 1 .022.077 1.643 1.643 0 0 1-.55 1.122 1.879 1.879 0 0 1-1.265.4 1.905 1.905 0 0 1-1.353-.473 1.667 1.667 0 0 1-.495-1.265v-2.297a1.69 1.69 0 0 1 .495-1.265 1.876 1.876 0 0 1 1.353-.484 1.851 1.851 0 0 1 1.353.484 1.69 1.69 0 0 1 .5 1.265Zm-1.848-2.3a.723.723 0 0 0-.572.253.957.957 0 0 0-.22.649v.583a.039.039 0 0 0 .044.044h1.507a.039.039 0 0 0 .044-.044v-.583a.952.952 0 0 0-.22-.649.733.733 0 0 0-.58-.257Zm5.071-.9a1.251 1.251 0 0 1 1.056.473 2.047 2.047 0 0 1 .374 1.32v3.773a.1.1 0 0 1-.11.11h-.836a.1.1 0 0 1-.11-.11V75.79a1.137 1.137 0 0 0-.2-.715.658.658 0 0 0-.55-.253.7.7 0 0 0-.572.253 1.163 1.163 0 0 0-.22.693c0 .044 0 .066-.011.066v3.641a.1.1 0 0 1-.11.11h-.836a.1.1 0 0 1-.11-.11V74.1a.1.1 0 0 1 .11-.11h.836a.1.1 0 0 1 .11.11v.3a.036.036 0 0 0 .022.033c.015 0 .03-.011.044-.033a1.355 1.355 0 0 1 1.116-.491Zm3.1-.8a.7.7 0 1 1 0-1.408.678.678 0 0 1 .7.7.678.678 0 0 1-.7.7Zm-.407 6.479a.1.1 0 0 1-.11-.11V74.1a.1.1 0 0 1 .11-.11h.836a.1.1 0 0 1 .11.11v5.379a.1.1 0 0 1-.11.11Zm4.278-5.654a.885.885 0 0 1 .473.121.117.117 0 0 1 .055.143l-.165.836q-.01.1-.132.066a.842.842 0 0 0-.308-.055 1.28 1.28 0 0 0-.2.022.774.774 0 0 0-.572.374 1.493 1.493 0 0 0-.22.825v3.212a.1.1 0 0 1-.11.11h-.836a.1.1 0 0 1-.11-.11V74.1a.1.1 0 0 1 .11-.11h.836a.1.1 0 0 1 .11.11v.638a.065.065 0 0 0 .011.044q.022 0 .033-.033a1.08 1.08 0 0 1 1.026-.818Z"/></svg>
