<svg xmlns="http://www.w3.org/2000/svg" viewBox="0 0 384 303" role="img" aria-label="Ministère du Travail, de l'Emploi et de l'Insertion"><path d="M35 33.973c.1-.079.187-.146.285-.218l.036.012a1.415 1.415 0 0 1-.291.187.1.1 0 0 1-.03.019m14.159-4.722c-.036.024-.066.048-.1.072.055-.006.1-.018.1-.072m-4.476 4.936a18.855 18.855 0 0 1-3.721 2.124 32.43 32.43 0 0 0-4.715 2.433H.435V.113h50.431a19.669 19.669 0 0 0-1.936.738 6.058 6.058 0 0 0-2.257 1.464 6.419 6.419 0 0 0-1.386 2.33 6.25 6.25 0 0 0-2.045 2.342c-.654 1.241-1.61 2.336-1.459 3.721.14 1.168.436 2.264.654 3.5a8.343 8.343 0 0 0 .29 1.241c.152.435 0 .95.218 1.313.151.217.079.514.369.659v.291c.079.073.079.145.218.145v.291a11.249 11.249 0 0 1 1.676 2.2c.152.436-.726.218-1.089.067a8.152 8.152 0 0 1-1.749-1.458.25.25 0 0 0-.078.145c.3.514 1.385 1.168.8 1.531-.29.151-.659-.218-.95.078-.072.145 0 .29 0 .436-.441-.291-.877-.146-1.313-.291-.29-.072-.369-.659-.726-.659a18.839 18.839 0 0 0-2.777-.509 13.929 13.929 0 0 0-3.873-.145 4.206 4.206 0 0 0-2.772 1.822v.224c.509.066.733-.369 1.168-.515.726-.145 1.386-.441 2.118-.587a12.117 12.117 0 0 1 3.135-.435 2.535 2.535 0 0 1 .738 0 10.816 10.816 0 0 0-3.728.732 12.415 12.415 0 0 0-2.559.726 16.467 16.467 0 0 1 5.621.8 8.356 8.356 0 0 1 1.828.877 5.049 5.049 0 0 0 .732.581 1.467 1.467 0 0 0 1.241.079h.369a6 6 0 0 0 2.989-1.392c0 .073.072.073.145.073a5.159 5.159 0 0 1-.653 1.755c0 .072-.079.217.072.29h.146c-.079 0-.146 0-.146.072 0 .146.218 0 .285.146a1.438 1.438 0 0 0-.944.442c0 .072.151.072.218.072-.146.146-.364.073-.436.218a.242.242 0 0 0 .139.073c-.067 0-.139 0-.139.072v.218c-.218 0-.3.145-.436.224.291.218.508 0 .8 0-.8.29-1.47.726-2.263.944-.151 0 0 .224-.151.224.218.139.369-.079.587-.079-1.023.587-2.046 1.1-3.147 1.755a.517.517 0 0 0-.139.29h-.3c-.139.073-.072.3-.218.436.364.224.8-.29 1.023 0 .073 0-.145.079-.29.079-.079 0-.079.145-.146.145h-.223c-.146.145-.285.218-.285.436-.151 0-.3 0-.369.145 1.61-.218 3.285-.073 4.817-.871a11.277 11.277 0 0 0 3.225-2.414.281.281 0 0 1 .072.151 3.2 3.2 0 0 1-1.24 1.677c-.436.217-.726.587-1.1.732l-.654.436c-2.7.949-5.918.508-8.254 2.335 0-.072-.073-.072-.145-.072-.145.145-.369.218-.435.369a.064.064 0 0 0 .018.048.178.178 0 0 0 .181.067.621.621 0 0 1 .121-.067 4.969 4.969 0 0 1 1.162-.568 1 1 0 0 0-.121.1c-.284.157-.557.326-.835.465h.025a1.659 1.659 0 0 0-.5.436.09.09 0 0 1 .057.114l-.009.019c-.024.043-.048.085-.072.133a.648.648 0 0 0-.049.079c-.03.054-.06.1-.1.157-.013.024-.025.042-.037.067s-.03.06-.048.091a.205.205 0 0 1-.031.054.337.337 0 0 1-.036.061.662.662 0 0 1-.03.066c-.006.006-.012.012-.012.018s-.006.012-.013.018-.005.013-.011.018a.507.507 0 0 0 .078.025.4.4 0 0 0 .109.012c.266.006.406-.315.581-.472a2.849 2.849 0 0 1 .345-.242c.018.024.036.042.048.06l-.018.067c-.042.061-.078.133-.127.193s.037.1.085.079v.012a6.582 6.582 0 0 0-1.229.914.111.111 0 0 1 .1.036.069.069 0 0 1 .009.095c-.1.145-.212.291-.314.442-.067.115-.14.224-.212.339s-.121.206-.188.309c-.012.023-.03.048-.042.072l-.006.006a.34.34 0 0 0 .224-.03c.4-.369.781-.751 1.18-1.126a.211.211 0 0 0 .109-.03 7.5 7.5 0 0 1 1.21-.956 1.608 1.608 0 0 0 .5-.43l.109-.127a.241.241 0 0 1 .048-.03 6.264 6.264 0 0 1 1.356-.551l.079-.018a24.274 24.274 0 0 1 2.662-.472 7.72 7.72 0 0 0 1.816-.073c.46-.1.883-.369 1.319-.508v.139c1.1-.435 1.9-1.386 2.989-1.748.079 0 .218.145.369.072a2.964 2.964 0 0 1 2.336-1.095c0 .072 0 .145.073.145h.048l-.781.587c-.072.073 0 .145.079.145.357-.145.581-.435.944-.587-.073.079-.073.218-.139.3a6.893 6.893 0 0 0-.8.635 24.3 24.3 0 0 0-2.438 2.481h.011c-.417.448-.835.9-1.252 1.307m-11.222-5.222c.514-.218 1.1 0 1.537-.436-.151-.151-.369-.078-.514-.3-.146-.073-.364.073-.509.145-.3.151-.8.151-.877.514-.073.146.218.073.363.073m-11.171-1.6a24.681 24.681 0 0 1 5.628-5.04c.139-.073-.224.218.073.145.95-.218 1.24-1.168 1.676-1.894.587-.95 1.609-1.319 2.336-2.118a.266.266 0 0 1-.073.218.266.266 0 0 0 .218.072c.3-.217.659-.145.877-.435a2.85 2.85 0 0 0-1.9-.079 14.316 14.316 0 0 0-4.091 3.213 9.84 9.84 0 0 1-2.48 2.045 22.16 22.16 0 0 1-2.33 3.718.259.259 0 0 0 .066.151m6.064-4.822c0-.073 0-.146-.079-.146a.91.91 0 0 0-.581.66c0 .073.079.073.145.073a.57.57 0 0 0 .3-.291c.066-.133.139-.151.218-.3m3.389 10.94c.06-.145-.327-.109-.388-.066a1.009 1.009 0 0 0-.157.163 3.253 3.253 0 0 1-.3.284c-.181.17-.351.352-.538.515-.121.1.278.163.363.085s.187-.17.278-.255c.049 0 .091-.012.109-.012a1.588 1.588 0 0 0 .551-.387c.06-.054-.006-.1-.1-.115a.663.663 0 0 0 .182-.212m-1.308-.6c.6-.375 1.2-.781 1.864-1.138a1.119 1.119 0 0 0-.66-.145c-.363.073-.8-.145-1.167 0-.926.43-2.1.4-2.8 1.078-.006 0-.006.005-.012.005a1.134 1.134 0 0 0-.157.182.152.152 0 0 1-.037.03c-.066.061-.139.109-.224.176a3.629 3.629 0 0 0-.375.369c0 .006 0 .006-.006.012-.055.048-.1.1-.164.151-.1.067.055.164.128.109.1-.078.169-.169.272-.236l.037-.018a2.421 2.421 0 0 0-.291.393.07.07 0 0 1 .006.049c-.006.036-.018.073-.024.109a.02.02 0 0 1-.006.018.516.516 0 0 1-.024.079.132.132 0 0 1-.013.048.021.021 0 0 0-.006.018 1.3 1.3 0 0 1-.066.17c-.006.011-.006.018-.013.03s0 .006 0 .012l-.013.012a1.349 1.349 0 0 1-.078.145c-.03.055-.067.1-.1.158a.319.319 0 0 1-.03.042c-.006.006-.006.006-.006.012-.073.1-.151.206-.23.308-.012.019-.031.037-.042.055-.043.055-.085.109-.127.157a1.118 1.118 0 0 0-.073.1c-.006 0-.006.006-.012.012-.079.1-.158.182-.236.266.006.012.011.025.018.037v.006a.686.686 0 0 0 .066.115l.018.036a.278.278 0 0 0 .031.043.079.079 0 0 0 .06-.031h.006a.785.785 0 0 0 .052-.078v-.006l.018-.031.024-.024c.006-.006.006-.018.012-.024l.006-.005a3.372 3.372 0 0 1 .43-.448c.085-.078.176-.151.266-.224.006-.012.03-.018.048-.018a.135.135 0 0 1 .049.006l.115-.06a1.182 1.182 0 0 1 .127-.067v.012c-.012.085.115.085.163.055a.684.684 0 0 0 .1-.1c.055-.073.109-.121.157-.176v-.006c.007-.006.013-.006.013-.012.036-.036.072-.067.108-.1l.007-.006.006-.006.1-.1a3.677 3.677 0 0 1 .732-.563.093.093 0 0 1 .121.031c.006.006.012.012.012.018a10.71 10.71 0 0 0 .962-.472c.29-.169.563-.363.835-.557.006-.006.013-.006.018-.012m1.495-5.077c.218.218.653.146.95 0a1.2 1.2 0 0 1 .726-.145c.073 0 .073-.146.073-.224a1.531 1.531 0 0 0 .586.078 20.212 20.212 0 0 0 5.041-1.534c-1.9-1.459-4.306-1.964-6.569-2.627.217 0 .435.218.653 0-.363-.29-.8-.145-1.167-.362.078 0 .223.072.3-.079a8.552 8.552 0 0 0-1.755-.436.706.706 0 0 0 .581-.726c0-.079-.145-.079-.218-.079a3.944 3.944 0 0 0-1.827 2.2c.514.284 1.1.066 1.609.145-.218.218-.587.218-.871.291-.23.054-.442.217-.369.362a.27.27 0 0 0 .163.109.971.971 0 0 0-.454.261c.291.218.581.072.878.072 0 .146.145.146.218.218a1.3 1.3 0 0 0-.732.654c-.146.369-.509.514-.727.8v.217a12.788 12.788 0 0 0-2.118 1.9c.073 0 .073.073.073.146-.151.217-.442.29-.515.514 0 .073 0 .139.073.139.878-.29 1.531-.944 2.336-1.24.587-.145 1.023-.508 1.537-.654.363-.072.8-.218 1.162-.291 0 .073 0 .146.078.146h.582c-.073.145-.364.073-.291.145" fill="#000091"/><path d="M107.005.112h-41.56a1.51 1.51 0 0 1 .393.182c.339.181.775.417 1.054.562a3.5 3.5 0 0 1 1.391 1.162c.145.224.364.659.218.95-.145.369-.218.95-.587 1.095a2.717 2.717 0 0 1-1.531.146 3.52 3.52 0 0 1-.871-.146 6 6 0 0 1 2.844 1.973c.072.145.363.218.66.218.066 0 .066.145.066.218-.145.151-.285.218-.218.441h.218c.369-.145.3-.877.805-.659a.821.821 0 0 1 .29 1.1 7.885 7.885 0 0 1-.871.732.627.627 0 0 0 0 .509 2.274 2.274 0 0 1 .363.877c.218.508.291 1.095.508 1.61a10.127 10.127 0 0 1 .515 3.28c0 .587-.3 1.1-.073 1.682a6.153 6.153 0 0 0 .8 1.531 10.989 10.989 0 0 1 .8 1.167c.435.733 1.24 1.459.871 2.336-.212.515-1.01.442-1.525.732-.441.364-.073.951.145 1.314.37.659-.436 1.095-.95 1.313.145.218.436.145.514.29.067.369.436.587.218.95-.3.442-1.174.66-.732 1.313a1.928 1.928 0 0 1-.072 1.61 1.8 1.8 0 0 1-1.313 1.1 2.983 2.983 0 0 1-1.386.073 1.085 1.085 0 0 0-.442-.146 32.857 32.857 0 0 0-3.717-.527 4.227 4.227 0 0 0-1.023.291 6.537 6.537 0 0 0-.884.786l-.005.007a1.751 1.751 0 0 0-.164.181c-.03.03-.061.073-.091.109s-.042.049-.066.072a8.731 8.731 0 0 0-.575.841.389.389 0 0 0-.031.061c-.018.031-.036.067-.054.1a7.192 7.192 0 0 0-.557 1.343c-.5 1.671-.278 3.105.073 3.455.1.1 2.408.811 4.018 1.525a13.588 13.588 0 0 1 1.724.872h40.81Z" fill="#e1000f"/><path d="M67.921 14.206c.291.073.726.073.726.218-.139.587-1.023.732-1.458 1.313h-.218c-.218.145-.152.514-.369.514a1.03 1.03 0 0 0-.654.073 1.24 1.24 0 0 0 1.089.436.327.327 0 0 1 .23.3.208.208 0 0 0 .139-.079c.079 0 .146 0 .146.079v.291c-.218.29-.581.145-.872.217a3.287 3.287 0 0 0 1.677 0c.441-.145 0-.877.29-1.24-.139 0 0-.224-.139-.224.139-.139.29-.363.435-.436a.523.523 0 0 0 .436-.217c0-.146-.3-.219-.218-.364.436-.29.8-.732.654-1.168-.067-.217-.654-.217-1.017-.369a2.462 2.462 0 0 0-1.246.073 5.465 5.465 0 0 0-1.089.3 5.1 5.1 0 0 0-1.393.727 10.184 10.184 0 0 1 1.61-.436 4.688 4.688 0 0 1 1.241 0" fill="gray"/><path d="M94.757 292.875c.786 0 1.464.6 1.1 2.112l-3.655.847c.635-1.7 1.7-2.959 2.554-2.959m2.021 5.9h-.726c-.914 1.083-1.894 1.93-2.868 1.93-1 0-1.513-.593-1.513-1.93a8.2 8.2 0 0 1 .169-1.615l5.894-1.943c1.15-2.723-.23-3.915-1.852-3.915-2.789 0-5.954 4.659-5.954 8.75 0 1.827.865 2.826 2.233 2.826 1.6 0 3.255-1.555 4.617-4.1m-1.177-8.559 4.151-3.873v-.446h-2.229l-2.553 4.321Zm-12.72 2.723h1.955l-3.111 8.49a.988.988 0 0 0 .86 1.446 7.222 7.222 0 0 0 5.615-4.127h-.557a7.732 7.732 0 0 1-3.594 2.172l2.85-7.981h2.917l.363-1.211H87.35l1.089-3.068h-1.131l-2.021 3.068-2.4.339Zm-2.644-.405a.872.872 0 0 0-.423-1.159.888.888 0 0 0-.273-.076c-1.707 0-3.728 1.537-4.532 3.685h.55a4.31 4.31 0 0 1 2.36-1.809l-3.256 8.465a.848.848 0 0 0 .709 1.235c1.615 0 3.509-1.555 4.314-3.679h-.55a4.354 4.354 0 0 1-2.367 1.809Zm.6-4.255a1.4 1.4 0 1 0-1.4-1.4 1.4 1.4 0 0 0 1.4 1.4m-18.744 13.023c-.424.956.025 1.573.956 1.573a.952.952 0 0 0 1.065-.763l2.258-5.978c1.04-1.277 3.194-2.639 4.042-2.639.617 0 .532.509.126 1.271l-3.467 6.663a.979.979 0 0 0 .854 1.446c1.7 0 3.721-1.531 4.532-3.679H71.9a4.357 4.357 0 0 1-2.36 1.809l2.977-6.021a4.86 4.86 0 0 0 .582-2.063 1.471 1.471 0 0 0-1.309-1.618 1.444 1.444 0 0 0-.271 0c-1.464 0-2.953 1.664-4.72 3.7v-1.573c0-1.125-.363-2.13-1.386-2.13-.635 0-1.258.557-1.833 1.343v.212c1.107-.067 1.6 1.6.811 3.34Zm-.042-7.405c.405-1.38.194-2.6-.871-2.6-1.253 0-1.574.956-2.851 3.7v-1.573c0-1.125-.363-2.13-1.379-2.13-1.2 0-2.282 1.852-3.111 3.685h.551c.575-.835 1.108-1.325 1.537-1.325.508 0 .787.792 0 2.535l-2.3 5.108c-.429.956.019 1.573.956 1.573a.953.953 0 0 0 1.066-.763l2.257-5.978a36.102 36.102 0 0 1 1.93-2.239Zm-13.065-1.023c.787 0 1.465.6 1.108 2.112l-3.661.847c.641-1.7 1.706-2.959 2.553-2.959m2.021 5.9h-.726c-.908 1.083-1.888 1.93-2.874 1.93s-1.507-.593-1.507-1.93a7.763 7.763 0 0 1 .176-1.615l5.887-1.943c1.15-2.723-.236-3.915-1.845-3.915-2.79 0-5.967 4.659-5.967 8.75 0 1.827.878 2.826 2.239 2.826 1.6 0 3.262-1.555 4.617-4.1m-13.893-5.833h1.954l-3.1 8.49a.983.983 0 0 0 .847 1.446 7.222 7.222 0 0 0 5.622-4.127h-.557a7.773 7.773 0 0 1-3.588 2.172l2.844-7.981h2.916l.364-1.211h-2.831l1.078-3.068h-1.12l-2.027 3.068-2.4.339Zm-10.747 6.614c0-2.614 2.917-6.166 4.556-6.166a3.734 3.734 0 0 1 1 .126l-1.7 4.533c-.987 1.192-2.494 2.638-3.2 2.638-.4 0-.659-.338-.659-1.131m8.956-8.744-.89-.061-1 .98h-.212c-4.853 0-9.047 5.447-9.047 9.4a1.612 1.612 0 0 0 1.466 1.744 1.574 1.574 0 0 0 .283 0c1.253 0 2.487-1.785 3.866-3.7l-.06.684c-.175 1.961.424 3.02 1.447 3.02 1.192 0 2.275-1.852 3.1-3.679h-.542c-.575.829-1.107 1.319-1.531 1.319-.448 0-.768-.811 0-2.536ZM24.98 293.9c.412-1.38.2-2.6-.865-2.6-1.259 0-1.579.956-2.856 3.7v-1.573c0-1.125-.358-2.13-1.38-2.13-1.2 0-2.276 1.852-3.111 3.685h.557c.569-.835 1.1-1.325 1.531-1.325.515 0 .787.792 0 2.535l-2.3 5.108c-.43.956.024 1.573.956 1.573a.946.946 0 0 0 1.065-.763l2.257-5.978a34.295 34.295 0 0 1 1.936-2.239Zm-16.3 8.556.22-.656c-2.832-.533-3.189-.533-2.064-3.619l1.15-3.171h3.129c1.4 0 1.428.575 1.216 2.106h.8l1.869-5.13h-.8c-.7 1.21-1.259 2.105-2.79 2.105H8.321l1.64-4.49c.508-1.428.811-1.724 2.723-1.724h1.361c1.979 0 2.215.533 2.215 2.535h.787l.659-3.491H5.961l-.212.659c2.275.466 2.487.678 1.422 3.619l-2.553 6.977c-1.065 2.917-1.507 3.147-4.127 3.619l-.194.659ZM66.264 266.282c.787 0 1.47.593 1.107 2.106l-3.66.853c.641-1.706 1.706-2.959 2.553-2.959m2.021 5.894h-.726c-.914 1.084-1.888 1.937-2.869 1.937-1 0-1.506-.594-1.506-1.937a7.76 7.76 0 0 1 .163-1.616l5.9-1.942c1.144-2.723-.242-3.915-1.851-3.915-2.79 0-5.961 4.665-5.961 8.75 0 1.828.872 2.832 2.233 2.832 1.6 0 3.255-1.555 4.617-4.109m-1.168-8.557 4.151-3.872v-.447h-2.239l-2.553 4.32Zm-12.732 2.724h1.967l-3.11 8.489a.99.99 0 0 0 .853 1.453 7.224 7.224 0 0 0 5.616-4.133h-.551a7.726 7.726 0 0 1-3.595 2.172l2.844-7.981h2.917l.363-1.21h-2.826l1.077-3.068h-1.125l-2.021 3.068-2.409.338Zm-2.632-.4a.874.874 0 0 0-.7-1.24c-1.706 0-3.727 1.537-4.532 3.685h.55a4.321 4.321 0 0 1 2.367-1.809l-3.256 8.465a.849.849 0 0 0 .36 1.146.838.838 0 0 0 .336.1c1.622 0 3.516-1.555 4.32-3.685h-.55a4.339 4.339 0 0 1-2.36 1.809Zm.6-4.26a1.4 1.4 0 1 0-.025 0h.025m-11.329 12.726 5.942-15.552-.193-.236-3.728.424v.448l.732.55c.654.515.442 1-.157 2.578l-4.629 12.211a.979.979 0 0 0 .847 1.453c1.7 0 3.51-1.537 4.321-3.685H43.6a4.794 4.794 0 0 1-2.578 1.809m-11.273-1.446c0-2.62 2.917-6.172 4.55-6.172a3.709 3.709 0 0 1 1 .127l-1.7 4.532c-.981 1.192-2.494 2.638-3.195 2.638-.406 0-.66-.339-.66-1.125m8.961-8.75-.9-.061-1 .981H36.6c-4.853 0-9.041 5.445-9.041 9.4a1.61 1.61 0 0 0 1.461 1.748 1.563 1.563 0 0 0 .282 0c1.259 0 2.493-1.792 3.879-3.7l-.067.678c-.169 1.96.424 3.025 1.447 3.025 1.186 0 2.275-1.858 3.1-3.685h-.551c-.581.828-1.113 1.319-1.537 1.319-.442 0-.762-.805 0-2.535Zm-21.663 14.13c0-1.126 1.083-1.828 2.639-2.445a18.1 18.1 0 0 0 2.3.871c1.616.533 2.233.75 2.233 1.235 0 1.047-1.767 1.833-4.169 1.833-2.022 0-3-.43-3-1.494m4.406-6.869c-.7 0-.981-.6-.981-1.276 0-1.895 1.023-4.684 2.62-4.684.7 0 .975.593.975 1.277 0 1.893-1.017 4.683-2.614 4.683m4.617 5.828c0-1.362-1.211-1.852-3.195-2.445-1.7-.514-2.469-.66-2.469-1.21a1.735 1.735 0 0 1 1.089-1.368 4.963 4.963 0 0 0 4.6-4.762 2.978 2.978 0 0 0-.236-1.174h2.36l.363-1.21h-3.743a2.9 2.9 0 0 0-1.513-.43 4.936 4.936 0 0 0-4.871 4.707 2.738 2.738 0 0 0 2.251 2.827c-1.379.617-2.142 1.343-2.142 2.19a1.34 1.34 0 0 0 .569 1.15c-3.189.938-4.441 2-4.441 3.51 0 1.47 1.93 2.087 4.229 2.087 3.9 0 7.153-2.1 7.153-3.872M11.2 268.2c1.4 0 1.422.574 1.21 2.105h.811l1.87-5.125h-.8c-.708 1.21-1.259 2.106-2.79 2.106H8.408L9.963 263c.509-1.428.805-1.7 2.724-1.7h1.355c1.984 0 2.221.533 2.221 2.511h.786l.66-3.491H5.963l-.217.659c2.275.467 2.486.684 1.427 3.619l-2.553 6.979c-1.065 2.916-1.507 3.153-4.127 3.623l-.194.659h13.065l2.342-3.7h-.895a8.567 8.567 0 0 1-5.979 2.741c-3.468 0-3.147-.151-2-3.322l1.237-3.378Zm1.7-8.914 4.151-2.85v-.448h-2.513l-2.3 3.3ZM64.884 239.682c.786 0 1.464.593 1.1 2.106l-3.655.853c.635-1.706 1.7-2.959 2.554-2.959m2.021 5.894h-.726c-.92 1.084-1.894 1.937-2.875 1.937-1 0-1.513-.6-1.513-1.937a8.2 8.2 0 0 1 .17-1.615l5.9-1.937c1.149-2.729-.236-3.915-1.858-3.915-2.784 0-5.954 4.659-5.954 8.744 0 1.827.877 2.832 2.233 2.832 1.6 0 3.255-1.555 4.623-4.109m-1.174-8.556 4.151-3.873v-.442h-2.232L65.1 237.02Zm-12.193 2.729h1.555l-3.105 8.484a.99.99 0 0 0 .414 1.338.979.979 0 0 0 .44.114 7.228 7.228 0 0 0 5.609-4.127h-.544a7.827 7.827 0 0 1-3.6 2.166l2.85-7.975h2.917l.363-1.216H57.6l1.083-3.062h-1.121l-2.021 3.062-2 .338Zm-1.532.956c.406-1.386.194-2.6-.871-2.6-1.259 0-1.573.956-2.85 3.7v-1.573c0-1.125-.363-2.124-1.386-2.124-1.191 0-2.275 1.852-3.1 3.679h.551c.574-.829 1.107-1.319 1.53-1.319.515 0 .787.787 0 2.529l-2.3 5.108c-.423.962.025 1.579.963 1.579.574 0 .829-.151 1.058-.768l2.257-5.979a36.923 36.923 0 0 1 1.943-2.233Zm-13.064-1.023c.793 0 1.471.593 1.1 2.106l-3.655.853c.636-1.706 1.7-2.959 2.554-2.959m2.021 5.894h-.72c-.92 1.084-1.9 1.937-2.874 1.937-1 0-1.513-.6-1.513-1.937a8.2 8.2 0 0 1 .169-1.615l5.894-1.937c1.15-2.729-.23-3.915-1.852-3.915-2.789 0-5.954 4.659-5.954 8.744 0 1.827.871 2.832 2.233 2.832 1.6 0 3.256-1.555 4.617-4.109m-14.45 2.385c-.575 0-1.4-.533-1.4-1a12.047 12.047 0 0 1 .569-1.64l.962-2.535c1.017-1.211 2.572-2.512 3.443-2.512.533 0 .938.345.938 1.132 0 2.317-2.166 6.554-4.514 6.554m6.705-7.492c0-1.725-.636-2.36-1.828-2.36-1.489 0-2.9 1.573-4.3 3.486l3.551-9.337-.193-.236-3.727.423v.448l.726.557c.665.508.453 1.041-.145 2.571l-3.823 9.88a10.9 10.9 0 0 0-.617 1.809c0 1.017 1.379 1.979 2.638 1.979 2.893 0 7.722-5.216 7.722-9.216m-11.576-1.125a.868.868 0 0 0-.7-1.235c-1.7 0-3.721 1.531-4.532 3.679h.557a4.344 4.344 0 0 1 2.36-1.809l-3.262 8.472a.853.853 0 0 0 .708 1.234c1.616 0 3.516-1.555 4.321-3.685h-.554a4.327 4.327 0 0 1-2.366 1.809Zm.6-4.261a1.4 1.4 0 0 0 1.4-1.4 1.4 1.4 0 1 0-1.426 1.4h.028m-8.575-1.361H5.92l-.212.66c2.276.471 2.488.683 1.423 3.618l-2.511 6.974c-1.066 2.917-1.507 3.153-4.127 3.623l-.194.66h11.788l2.553-4.56h-.889c-1.453 1.6-3.153 3.6-5.767 3.6-1.985 0-2.215-.339-1.15-3.323L9.346 238c1.04-2.917 1.506-3.147 4.127-3.618ZM.3 58.088h7.321l7.071 12.157 7.071-12.157h7.32v28.946H23.21V66.276L16.759 77.11h-4.134L6.173 66.276v20.758H.3ZM37.145 58.088h5.872v28.946h-5.872ZM51.122 58.088h7.525L71.59 79.012V58.088h5.872v28.946h-7.526L56.993 66.11v20.924h-5.871ZM85.566 58.088h5.872v28.946h-5.872ZM101.2 79.094a8.347 8.347 0 0 0 6.409 3.557c2.315 0 3.722-1.241 3.722-3.308 0-5.335-13.15-3.888-13.15-13.687 0-4.591 3.8-8.4 9.345-8.4a12.851 12.851 0 0 1 10.132 4.879l-4.3 3.888c-1.695-2.192-3.6-3.64-5.789-3.64a3.133 3.133 0 0 0-3.419 2.816 3.99 3.99 0 0 0-.014.244c0 5.252 13.151 3.764 13.151 13.688-.083 5.458-4.3 8.725-9.635 8.725a12.973 12.973 0 0 1-10.711-4.838ZM120.465 58.088H144.2v5.334h-8.933v23.612H129.4V63.422h-8.933ZM149.371 58.088h16.871v4.88h-11v6.864h9.345v4.879h-9.345v7.444h11v4.879h-16.871Zm.5-8.063h6.029l4.673 5.582H155.2ZM173.064 58.088h8.849c6.368 0 10.3 3.267 10.3 8.642a7.765 7.765 0 0 1-4.672 7.485l9.055 12.819h-6.905l-7.732-11.7h-3.02v11.7h-5.871Zm5.871 4.88v7.484h3.309c2.481 0 3.928-1.447 3.928-3.8 0-2.192-1.447-3.68-3.928-3.68ZM200.313 58.088h16.872v4.88h-11v6.864h9.346v4.879h-9.346v7.444h11v4.879h-16.872ZM.3 100.088h11.373c9.18 0 15.383 6.657 15.383 14.473s-6.2 14.473-15.383 14.473H.3Zm5.871 5.334V123.7h5.583A9.139 9.139 0 1 0 12 105.422H6.173ZM49.468 100.088h5.872V117.7c0 7.608-4.465 12.157-11.744 12.157-7.236 0-11.7-4.549-11.7-12.157v-17.612h5.872V118.2c0 3.887 2.192 6.161 5.871 6.161 3.6 0 5.831-2.274 5.831-6.161ZM70.39 100.088h23.736v5.334h-8.932v23.612h-5.871v-23.612H70.39ZM99.294 100.088h8.85c6.368 0 10.3 3.267 10.3 8.642a7.768 7.768 0 0 1-4.673 7.485l9.057 12.819h-6.907l-7.732-11.7h-3.018v11.7h-5.877Zm5.873 4.88v7.484h3.307c2.482 0 3.929-1.447 3.929-3.8 0-2.192-1.447-3.68-3.929-3.68ZM133.864 100.088h7.691l10.958 28.946h-6.244l-2.77-7.526H131.92l-2.77 7.526h-6.244Zm7.815 16.417-3.97-10.876-3.969 10.876ZM159.584 100.088l8.559 22.619 8.56-22.619h6.244l-10.958 28.946H164.3l-10.958-28.946ZM194.731 100.088h7.691l10.958 28.946h-6.244l-2.77-7.526h-11.578l-2.771 7.526h-6.244Zm7.815 16.417-3.969-10.876-3.97 10.876ZM217.845 100.088h5.872v28.946h-5.872ZM231.822 100.088h5.872V123.7h11v5.335h-16.872ZM250.347 135.65l3.763-12.364h5.914l-4.8 12.364ZM.3 142.088h11.373c9.18 0 15.383 6.657 15.383 14.473s-6.2 14.472-15.383 14.472H.3Zm5.871 5.334V165.7h5.583A9.139 9.139 0 1 0 12 147.422h-.246ZM49.468 142.088h5.872V159.7c0 7.609-4.465 12.158-11.744 12.158-7.236 0-11.7-4.549-11.7-12.158v-17.612h5.872V160.2c0 3.887 2.192 6.162 5.871 6.162 3.6 0 5.831-2.275 5.831-6.162ZM73.368 142.088h9.552c6.368 0 10.255 3.266 10.255 8.642 0 5.335-3.887 8.6-10.255 8.6h-3.68v11.7h-5.872Zm5.872 4.879v7.484h3.928c2.481 0 3.97-1.447 3.97-3.8 0-2.191-1.489-3.68-3.97-3.68ZM98.012 142.088h5.872V165.7h11v5.334H98.012ZM120.052 142.088h16.871v4.879h-11v6.864h9.346v4.88h-9.346v7.443h11v4.879h-16.871ZM143.747 142.088h5.871v28.945h-5.871ZM157.722 142.088h7.527l12.942 20.923v-20.923h5.872v28.945h-7.525l-12.944-20.923v20.923h-5.872ZM202.917 142.088h16.873v4.879h-11v6.864h9.345v4.88h-9.345v7.443h11v4.879h-16.873ZM226.612 142.088h7.319L241 154.244l7.072-12.156h7.319v28.945h-5.872v-20.758l-6.449 10.835h-4.135l-6.451-10.835v20.758h-5.872ZM263.455 142.088h9.552c6.369 0 10.255 3.266 10.255 8.642 0 5.335-3.886 8.6-10.255 8.6h-3.68v11.7h-5.872Zm5.872 4.879v7.484h3.928c2.481 0 3.97-1.447 3.97-3.8 0-2.191-1.489-3.68-3.97-3.68ZM288.1 142.088h5.872V165.7h11v5.334H288.1ZM338.382 156.561a15.362 15.362 0 1 1-15.423-15.3h.083A15.043 15.043 0 0 1 338.382 156c.003.186.004.373 0 .561Zm-6.037 0c0-5.542-3.886-9.8-9.3-9.8-5.459 0-9.346 4.259-9.346 9.8s3.887 9.8 9.346 9.8c5.414 0 9.3-4.261 9.3-9.8ZM344.005 142.088h5.872v28.945h-5.872ZM.3 184.087h16.873v4.88h-11v6.864h9.346v4.88H6.173v7.443h11v4.879H.3ZM21.018 184.087h23.736v5.335h-8.932v23.612h-5.871v-23.612h-8.933ZM60.673 184.087h11.372c9.18 0 15.383 6.658 15.383 14.474s-6.2 14.472-15.383 14.472H60.673Zm5.872 5.335V207.7h5.582a9.14 9.14 0 1 0 .246-18.278h-.246ZM93.092 184.087h16.871v4.88h-11v6.864h9.346v4.88h-9.346v7.443h11v4.879H93.092ZM127.537 184.087h5.872V207.7h11v5.334h-16.872ZM146.062 196l3.722-11.909h5.954L150.941 196ZM160.328 184.087h5.872v28.946h-5.872ZM174.3 184.087h7.526l12.943 20.924v-20.924h5.871v28.946h-7.525l-12.94-20.923v20.923H174.3ZM210.4 205.094a8.352 8.352 0 0 0 6.409 3.557c2.316 0 3.722-1.242 3.722-3.309 0-5.334-13.15-3.887-13.15-13.687 0-4.59 3.805-8.4 9.346-8.4a12.847 12.847 0 0 1 10.131 4.88l-4.3 3.887c-1.695-2.192-3.6-3.639-5.789-3.639a3.132 3.132 0 0 0-3.418 2.815 3.384 3.384 0 0 0-.014.245c0 5.251 13.15 3.763 13.15 13.687-.083 5.459-4.3 8.726-9.635 8.726a12.974 12.974 0 0 1-10.71-4.838ZM232.649 184.087h16.872v4.88h-11v6.864h9.346v4.88h-9.346v7.443h11v4.879h-16.872ZM256.342 184.087h8.85c6.368 0 10.3 3.268 10.3 8.643a7.767 7.767 0 0 1-4.673 7.484l9.056 12.819h-6.906l-7.733-11.7h-3.019v11.7h-5.872Zm5.872 4.88v7.484h3.309c2.48 0 3.928-1.447 3.928-3.8 0-2.193-1.448-3.681-3.928-3.681ZM280.616 184.087h23.735v5.335h-8.932v23.612h-5.872v-23.612h-8.931ZM309.519 184.087h5.872v28.946h-5.872ZM351.739 198.561a15.362 15.362 0 1 1-15.423-15.3h.082A15.042 15.042 0 0 1 351.738 198c.004.185.004.373.001.561Zm-6.037 0c0-5.541-3.887-9.8-9.3-9.8-5.459 0-9.346 4.26-9.346 9.8s3.887 9.8 9.346 9.8c5.417 0 9.3-4.259 9.3-9.8ZM357.362 184.087h7.526l12.944 20.924v-20.924h5.868v28.946h-7.526l-12.94-20.923v20.923h-5.872Z"/></svg>
